<svg id="logosandtypes_com" data-name="logosandtypes com" xmlns="http://www.w3.org/2000/svg" viewBox="0 0 150 150">
  <defs>
    <style>
      .cls-1 {
        fill: #223364;
      }

      .cls-2 {
        fill: none;
      }
    </style>
  </defs>
  <path class="cls-2" d="M0,0H150V150H0V0Z"/>
  <path class="cls-1" d="M106.04,15.19C62.48-8.09,7.26,25.38,8.2,74.98c0,37.37,29.9,67.27,67.27,67.27,61.58,.22,90.44-76.56,44.84-116.87-8.15,13.59-20.38,42.81-25.14,54.36-4.76,12.23-12.91,34.65-15.63,42.81-4.23-.68-12.65-.8-16.99,0-9-25.01-19.35-55.23-29.22-79.5,4.12,.67,21.61,.76,25.14,0,2.72,9.51,14.95,48.24,18.35,58.43h.68c3.4-9.51,8.15-23.1,10.87-30.58,9.51-28.54,18.35-55.72,17.67-55.72"/>
</svg>
